<svg width="79" height="31" viewBox="0 0 79 31" fill="none" xmlns="http://www.w3.org/2000/svg">
<path fill-rule="evenodd" clip-rule="evenodd" d="M12.8304 5.71662C12.9531 5.7378 13.069 5.78622 13.1692 5.8581C13.2694 5.92998 13.351 6.02336 13.4078 6.13094C13.4646 6.23853 13.4949 6.35739 13.4965 6.47823C13.498 6.59908 13.4707 6.71863 13.4166 6.82753L17.5861 10.7482L17.4241 10.9126L13.2831 7.01863C13.2099 7.09638 13.1212 7.15881 13.0223 7.20208C12.9234 7.24535 12.8164 7.26854 12.7079 7.27023C12.5994 7.27192 12.4917 7.25208 12.3914 7.21192C12.2912 7.17177 12.2004 7.11214 12.1247 7.03671L8.00319 10.9105L7.84121 10.7461L11.9858 6.84905C11.9247 6.73716 11.8928 6.61241 11.8931 6.48578C11.8935 6.29586 11.9651 6.11257 12.0945 5.97004C12.2239 5.82751 12.4023 5.73545 12.5965 5.71102V0.00969962H12.8304V5.71662ZM28.8071 19.954V23.2609C28.7993 24.2736 28.9982 25.2779 29.3924 26.2157C29.7866 27.1535 30.3682 28.0064 31.1038 28.7252C31.8395 29.444 32.7145 30.0145 33.6785 30.4038C34.6425 30.7932 35.6764 30.9936 36.7207 30.9936C37.7649 30.9936 38.7988 30.7932 39.7628 30.4038C40.7268 30.0145 41.6019 29.444 42.3375 28.7252C43.0731 28.0064 43.6548 27.1535 44.0489 26.2157C44.4431 25.2779 44.6421 24.2736 44.6342 23.2609V19.954C44.6248 18.177 43.9819 16.4579 42.8147 15.0881C43.9932 13.7549 44.6389 12.0554 44.6342 10.2993V7.7327C44.6421 6.71996 44.4431 5.71574 44.0489 4.77791C43.6548 3.84008 43.0731 2.98719 42.3375 2.26838C41.6019 1.54957 40.7268 0.97907 39.7628 0.589752C38.7988 0.200435 37.7649 0 36.7207 0C35.6764 0 34.6425 0.200435 33.6785 0.589752C32.7145 0.97907 31.8395 1.54957 31.1038 2.26838C30.3682 2.98719 29.7866 3.84008 29.3924 4.77791C28.9982 5.71574 28.7993 6.71996 28.8071 7.7327V10.2993C28.7755 12.0466 29.3935 13.7465 30.5481 15.0881C29.4044 16.4657 28.7891 18.1855 28.8071 19.954ZM34.742 10.2993V7.7327C34.7386 7.47924 34.7874 7.22768 34.8855 6.99273C34.9836 6.75779 35.129 6.54417 35.3132 6.36437C35.4974 6.18458 35.7168 6.04222 35.9584 5.94563C36.2 5.84904 36.4591 5.80016 36.7204 5.80184C37.2442 5.81152 37.7435 6.01843 38.1127 6.37879C38.482 6.73916 38.6922 7.2247 38.6989 7.7327V10.2993C38.6923 10.8074 38.4821 11.293 38.1129 11.6535C37.7436 12.0139 37.2443 12.2209 36.7204 12.2306C36.4591 12.2323 36.1999 12.1834 35.9583 12.0867C35.7166 11.9901 35.4973 11.8477 35.313 11.6679C35.1288 11.488 34.9834 11.2744 34.8853 11.0394C34.7873 10.8044 34.7386 10.5528 34.742 10.2993ZM34.742 23.2609V19.954C34.7387 19.7006 34.7875 19.4491 34.8856 19.2142C34.9837 18.9793 35.1291 18.7657 35.3134 18.586C35.4976 18.4062 35.7169 18.2639 35.9585 18.1673C36.2001 18.0708 36.4591 18.0219 36.7204 18.0236C37.2441 18.0331 37.7434 18.24 38.1127 18.6003C38.482 18.9605 38.6922 19.446 38.6989 19.954V23.2609C38.6922 23.7689 38.482 24.2544 38.1127 24.6148C37.7435 24.9752 37.2442 25.1821 36.7204 25.1918C36.4591 25.1934 36.2 25.1446 35.9584 25.048C35.7168 24.9514 35.4974 24.809 35.3132 24.6292C35.129 24.4494 34.9836 24.2358 34.8855 24.0009C34.7874 23.7659 34.7386 23.5144 34.742 23.2609ZM9.88933 23.2609C9.89326 23.5153 9.84499 23.7679 9.74734 24.004C9.64969 24.2401 9.50461 24.455 9.32053 24.6362C9.13644 24.8175 8.91703 24.9614 8.67507 25.0596C8.4331 25.1579 8.17342 25.2084 7.91111 25.2084C7.6488 25.2084 7.38912 25.1579 7.14716 25.0596C6.90519 24.9614 6.68578 24.8175 6.50169 24.6362C6.31761 24.455 6.17252 24.2401 6.07487 24.004C5.97722 23.7679 5.92896 23.5153 5.93289 23.2609V12.3429H0.000200527V23.2609C-0.00722985 24.2738 0.191903 25.2781 0.586138 26.2161C0.980373 27.1541 1.56193 28.0073 2.29736 28.7265C3.0328 29.4457 3.9076 30.0168 4.87144 30.407C5.83527 30.7971 6.86913 30.9986 7.91355 30.9998C9.73069 31.0118 11.4947 30.406 12.8992 29.2876C14.2733 30.4048 16.0123 31.0116 17.8053 30.9998C18.8517 31.0051 19.8886 30.8081 20.8555 30.4203C21.8223 30.0324 22.6998 29.4615 23.4366 28.741C24.1734 28.0205 24.7547 27.1647 25.1465 26.2238C25.5384 25.2828 25.7329 24.2756 25.7187 23.2609V12.3429H19.7838V23.2609C19.7838 23.7698 19.5754 24.2579 19.2043 24.6177C18.8333 24.9775 18.3301 25.1797 17.8053 25.1797C17.2806 25.1797 16.7774 24.9775 16.4064 24.6177C16.0353 24.2579 15.8269 23.7698 15.8269 23.2609V12.3429H9.892V23.2609H9.88933ZM49.8888 17.5032C49.8924 17.6944 49.8519 17.8839 49.7703 18.058C49.6928 18.2188 49.5776 18.3599 49.4339 18.4699C49.2793 18.5858 49.1032 18.6717 48.9151 18.723C48.6996 18.7823 48.4765 18.8113 48.2525 18.8091C48.1107 18.809 47.9691 18.7976 47.8291 18.7751C47.7071 18.7546 47.5867 18.7258 47.4688 18.689C47.3753 18.6602 47.2845 18.6239 47.1972 18.5805C47.1396 18.5526 47.0854 18.5185 47.0356 18.479C46.999 18.4444 46.9733 18.4006 46.9615 18.3524C46.9435 18.2799 46.9356 18.2053 46.938 18.1307C46.9374 18.0822 46.9406 18.0338 46.9473 17.9857C46.9518 17.9537 46.9597 17.9223 46.9708 17.8919C46.9768 17.8717 46.9896 17.854 47.0071 17.8416C47.0246 17.8292 47.0459 17.8228 47.0676 17.8234C47.1228 17.8308 47.175 17.8522 47.2189 17.8854C47.2855 17.9259 47.3663 17.9715 47.4643 18.0184C47.5751 18.0716 47.6901 18.116 47.8083 18.151C47.9569 18.1944 48.1115 18.2151 48.2667 18.2125C48.3855 18.2138 48.5039 18.2002 48.6191 18.1721C48.7168 18.1479 48.8093 18.1072 48.8925 18.052C48.968 18.0007 49.029 17.9319 49.07 17.8518C49.1146 17.7614 49.1365 17.662 49.1339 17.5617C49.1375 17.4587 49.1064 17.3572 49.0451 17.2729C48.9794 17.1901 48.8987 17.1196 48.8068 17.065C48.7007 17.0013 48.5887 16.9474 48.4722 16.9041C48.3497 16.858 48.2214 16.8089 48.0901 16.7581C47.9592 16.7063 47.8311 16.6481 47.7062 16.5838C47.5831 16.5208 47.4701 16.4408 47.3707 16.3462C47.2701 16.2501 47.1892 16.1363 47.1324 16.0109C47.0691 15.8637 47.0388 15.7051 47.0436 15.5457C47.0433 15.3883 47.0754 15.2324 47.1381 15.0873C47.2022 14.9403 47.2994 14.8091 47.4226 14.7033C47.5618 14.5868 47.7229 14.4974 47.897 14.4399C48.2191 14.3384 48.5615 14.3135 48.8956 14.3672C48.9976 14.3821 49.0982 14.405 49.1965 14.4356C49.2756 14.4567 49.3523 14.4855 49.4255 14.5217C49.476 14.545 49.5241 14.5728 49.5693 14.6048C49.5945 14.622 49.6164 14.6435 49.6341 14.668C49.6455 14.6871 49.6536 14.7079 49.658 14.7296C49.6629 14.7511 49.666 14.7786 49.6704 14.8131C49.6758 14.8535 49.6784 14.8942 49.678 14.9349C49.6783 14.9792 49.6758 15.0235 49.6704 15.0675C49.6678 15.0992 49.6605 15.1303 49.6487 15.16C49.6407 15.1808 49.6269 15.199 49.6088 15.2125C49.5943 15.2229 49.5767 15.2285 49.5586 15.2284C49.5143 15.2229 49.4723 15.2059 49.437 15.1794C49.3717 15.1403 49.304 15.1052 49.2342 15.0743C49.1379 15.0328 49.0391 14.9971 48.9382 14.9676C48.8128 14.9335 48.6831 14.9168 48.553 14.9181C48.4372 14.916 48.3217 14.9305 48.2104 14.9611C48.1212 14.9853 48.038 15.0268 47.9658 15.083C47.9042 15.1346 47.8551 15.1989 47.822 15.271C47.79 15.3453 47.7738 15.4251 47.7745 15.5056C47.7709 15.6114 47.8032 15.7154 47.8664 15.8018C47.9328 15.8856 48.0148 15.9566 48.1083 16.0109C48.2152 16.0756 48.3279 16.1308 48.4451 16.1758C48.5725 16.2227 48.7012 16.2722 48.8326 16.3234C48.9639 16.3746 49.0931 16.4323 49.2218 16.4956C49.3459 16.5564 49.4606 16.6338 49.5626 16.7254C49.6622 16.8184 49.7427 16.9288 49.8 17.0508C49.8636 17.1937 49.8947 17.3481 49.8915 17.5036L49.8888 17.5032ZM54.57 18.6102C54.5709 18.6317 54.5642 18.6528 54.5509 18.6701C54.5356 18.6896 54.5148 18.7046 54.491 18.7131C54.4543 18.728 54.4156 18.7374 54.376 18.7411C54.3146 18.7482 54.2528 18.7514 54.191 18.7505C54.1271 18.7515 54.0632 18.7483 53.9997 18.7411C53.9601 18.7375 53.9214 18.7281 53.8847 18.7131C53.8611 18.7042 53.8402 18.6893 53.8244 18.6701C53.811 18.6529 53.8041 18.6318 53.8049 18.6102V16.2287C53.8103 16.0407 53.7918 15.8528 53.7498 15.6692C53.7185 15.5387 53.664 15.4144 53.5887 15.302C53.5199 15.2015 53.4244 15.1208 53.3123 15.0683C53.1904 15.0116 53.0564 14.9834 52.9213 14.9861C52.7133 14.9915 52.5126 15.0612 52.3483 15.185C52.1203 15.3508 51.9177 15.5472 51.7465 15.7682V18.6089C51.7474 18.6305 51.7403 18.6518 51.7266 18.6688C51.7107 18.688 51.6899 18.7029 51.6662 18.7118C51.6296 18.7268 51.5908 18.7362 51.5513 18.7398C51.4879 18.747 51.4242 18.7502 51.3604 18.7493C51.2986 18.7501 51.2368 18.7469 51.1754 18.7398C51.1351 18.736 51.0957 18.7266 51.0582 18.7118C51.0338 18.7045 51.0126 18.6893 50.9983 18.6688C50.9862 18.6511 50.9801 18.6302 50.981 18.6089V12.5728C50.9801 12.5506 50.9861 12.5287 50.9983 12.5099C51.0117 12.4877 51.033 12.4711 51.0582 12.463C51.096 12.4496 51.1354 12.4408 51.1754 12.4367C51.2368 12.4296 51.2986 12.4264 51.3604 12.4273C51.4242 12.4264 51.4879 12.4295 51.5513 12.4367C51.5906 12.4406 51.6292 12.4494 51.6662 12.463C51.6906 12.4727 51.7115 12.489 51.7266 12.5099C51.7404 12.5281 51.7474 12.5502 51.7465 12.5728V15.0089C51.9349 14.8043 52.1589 14.6335 52.4082 14.504C52.6147 14.3977 52.8446 14.3412 53.0784 14.3392C53.32 14.3318 53.5601 14.3793 53.7796 14.4778C53.9616 14.5625 54.1201 14.6885 54.2416 14.8449C54.3617 15.0067 54.447 15.1902 54.4923 15.3847C54.5487 15.6302 54.5748 15.8813 54.57 16.1327V18.6107V18.6102ZM56.7282 18.6102C56.729 18.6318 56.7219 18.653 56.7082 18.6701C56.6929 18.6893 56.6725 18.7042 56.6492 18.7131C56.6122 18.7278 56.5731 18.7372 56.5333 18.7411C56.47 18.7483 56.4062 18.7515 56.3425 18.7505C56.2805 18.7514 56.2185 18.7482 56.157 18.7411C56.117 18.7375 56.0778 18.728 56.0407 18.7131C56.0159 18.7057 55.9944 18.6906 55.9795 18.6701C55.9679 18.6522 55.962 18.6313 55.9626 18.6102V14.5423C55.9628 14.5219 55.9686 14.5018 55.9795 14.4842C55.9937 14.4631 56.0155 14.4477 56.0407 14.4412C56.0779 14.4265 56.117 14.4171 56.157 14.4132C56.2186 14.4066 56.2805 14.4036 56.3425 14.4042C56.4062 14.4035 56.47 14.4065 56.5333 14.4132C56.5731 14.4173 56.6121 14.4267 56.6492 14.4412C56.6729 14.4493 56.6935 14.4643 56.7082 14.4842C56.7211 14.501 56.7282 14.5214 56.7282 14.5423V18.6107V18.6102ZM56.8147 13.1685C56.8304 13.2957 56.7939 13.4238 56.7131 13.5253C56.5995 13.5866 56.4718 13.6187 56.3418 13.6187C56.2119 13.6187 56.0841 13.5866 55.9706 13.5253C55.8916 13.4255 55.8559 13.2998 55.8712 13.1749C55.8556 13.0481 55.8918 12.9203 55.9719 12.819C56.0803 12.7433 56.2137 12.7091 56.3465 12.723C56.477 12.7087 56.6083 12.7416 56.7153 12.8155C56.7939 12.9156 56.8296 13.0413 56.8147 13.1663V13.1685ZM61.9739 16.5128C61.9779 16.8357 61.9379 17.1577 61.8549 17.4705C61.7885 17.7306 61.671 17.9758 61.5088 18.1927C61.3593 18.3859 61.1652 18.5423 60.942 18.6494C60.6995 18.7593 60.4344 18.8142 60.1667 18.8099C60.0518 18.8108 59.9372 18.7983 59.8254 18.7725C59.718 18.7485 59.6144 18.7106 59.5174 18.6597C59.411 18.6054 59.3107 18.5403 59.2183 18.4656C59.1189 18.3868 59.015 18.2934 58.9041 18.1889V20.2243C58.9042 20.2467 58.8976 20.2687 58.885 20.2876C58.8691 20.3064 58.8487 20.3211 58.8255 20.3306C58.7885 20.3454 58.7495 20.3548 58.7097 20.3586C58.6461 20.3644 58.5823 20.3672 58.5184 20.3668C58.4567 20.367 58.3949 20.3643 58.3334 20.3586C58.2932 20.355 58.2539 20.3456 58.2167 20.3306C58.1923 20.3229 58.1711 20.3078 58.1563 20.2876C58.1452 20.2682 58.1394 20.2464 58.1394 20.2243V14.5428C58.1381 14.5203 58.1429 14.4979 58.1532 14.4778C58.1664 14.4582 58.1857 14.4431 58.2082 14.4347C58.2425 14.4207 58.2789 14.4123 58.3161 14.4098C58.3679 14.4043 58.4201 14.4017 58.4723 14.402C58.5259 14.4015 58.5796 14.4041 58.6329 14.4098C58.6688 14.4123 58.7039 14.4208 58.7368 14.4347C58.7601 14.4432 58.7803 14.4582 58.7949 14.4778C58.8065 14.4975 58.8119 14.5201 58.8105 14.5428V15.0903C58.9251 14.9727 59.0476 14.8626 59.177 14.7606C59.2867 14.6711 59.4057 14.5929 59.5321 14.5273C59.6474 14.4662 59.7701 14.419 59.8973 14.387C60.027 14.3543 60.1605 14.3382 60.2945 14.3392C60.563 14.3313 60.8291 14.3906 61.0672 14.5114C61.2777 14.6238 61.4562 14.7849 61.5869 14.9805C61.7267 15.193 61.8264 15.4279 61.8811 15.6743C61.9449 15.9495 61.9762 16.2308 61.9743 16.5128H61.9739ZM61.167 16.5989C61.1674 16.3971 61.1515 16.1957 61.1195 15.9963C61.0915 15.8159 61.0352 15.6407 60.9527 15.4768C60.8786 15.3333 60.7695 15.2095 60.6349 15.1161C60.4881 15.0228 60.3151 14.9757 60.1396 14.9814C60.0406 14.9814 59.9422 14.9959 59.8476 15.0244C59.7451 15.0573 59.6475 15.1032 59.5574 15.1609C59.4458 15.232 59.3417 15.3138 59.2467 15.4049C59.1243 15.5217 59.0102 15.6464 58.905 15.7781V17.3965C59.0778 17.6118 59.2786 17.8047 59.5023 17.9702C59.6725 18.0967 59.8804 18.1663 60.0948 18.1686C60.2697 18.1729 60.4419 18.1255 60.5883 18.0326C60.7274 17.9393 60.8416 17.8152 60.9216 17.6706C61.0095 17.5119 61.0725 17.3413 61.1084 17.1645C61.1486 16.9788 61.1686 16.7895 61.1679 16.5997L61.167 16.5989ZM66.9555 16.5128C66.9597 16.8357 66.9197 17.1578 66.8365 17.4705C66.7702 17.7305 66.653 17.9757 66.4913 18.1927C66.3415 18.3861 66.1469 18.5425 65.9232 18.6494C65.6809 18.7594 65.4159 18.8143 65.1483 18.8099C65.0337 18.8108 64.9194 18.7983 64.8079 18.7725C64.6996 18.7489 64.595 18.7109 64.4973 18.6597C64.3909 18.6055 64.2908 18.5404 64.1986 18.4656C64.0992 18.3868 63.9945 18.2934 63.884 18.1889V20.2243C63.884 20.2467 63.8775 20.2686 63.8653 20.2876C63.8493 20.3065 63.8287 20.3212 63.8054 20.3306C63.7685 20.3455 63.7294 20.3549 63.6896 20.3586C63.626 20.3644 63.5622 20.3671 63.4983 20.3668C63.4367 20.367 63.375 20.3643 63.3137 20.3586C63.2733 20.3548 63.2337 20.3454 63.1961 20.3306C63.1721 20.3227 63.1513 20.3076 63.1366 20.2876C63.1253 20.2683 63.1194 20.2465 63.1193 20.2243V14.5428C63.1183 14.5203 63.123 14.498 63.1331 14.4778C63.1467 14.4582 63.1662 14.4432 63.189 14.4347C63.2231 14.4206 63.2594 14.4122 63.2964 14.4098C63.4014 14.3993 63.5073 14.3993 63.6123 14.4098C63.6483 14.4123 63.6836 14.4207 63.7166 14.4347C63.7401 14.4433 63.7604 14.4582 63.7752 14.4778C63.7873 14.4973 63.7929 14.52 63.7912 14.5428V15.0903C63.9059 14.9727 64.0283 14.8626 64.1578 14.7606C64.2671 14.6707 64.3862 14.5924 64.5128 14.5273C64.6298 14.4653 64.7543 14.4177 64.8834 14.3857C65.0129 14.353 65.1463 14.3369 65.2801 14.3379C65.5488 14.3299 65.8151 14.3892 66.0532 14.5101C66.263 14.623 66.4406 14.7848 66.5698 14.9809C66.7097 15.1934 66.8093 15.4284 66.8641 15.6748C66.9279 15.9499 66.9592 16.2312 66.9572 16.5132L66.9555 16.5128ZM66.1491 16.5989C66.1499 16.3971 66.134 16.1956 66.1016 15.9963C66.0735 15.8158 66.0169 15.6406 65.9338 15.4768C65.8602 15.3332 65.7514 15.2094 65.617 15.1161C65.4702 15.0228 65.2972 14.9757 65.1217 14.9814C65.0225 14.9814 64.924 14.9959 64.8292 15.0244C64.7266 15.0573 64.6288 15.1032 64.5386 15.1609C64.4274 15.2327 64.3234 15.3144 64.2279 15.4049C64.106 15.5221 63.992 15.6467 63.8866 15.7781V17.3965C64.0596 17.6117 64.2603 17.8046 64.484 17.9702C64.6543 18.0967 64.8623 18.1663 65.0769 18.1686C65.2517 18.173 65.4237 18.1255 65.5699 18.0326C65.7092 17.9393 65.8235 17.8152 65.9037 17.6706C65.9912 17.5118 66.0541 17.3412 66.0901 17.1645C66.1306 16.9788 66.1507 16.7895 66.15 16.5997L66.1491 16.5989ZM68.9517 18.6107C68.9521 18.632 68.9456 18.653 68.933 18.6705C68.9171 18.6895 68.8965 18.7043 68.8731 18.7135C68.8364 18.7286 68.7975 18.7381 68.7577 18.7415C68.6941 18.7488 68.6301 18.7519 68.566 18.751C68.5042 18.7513 68.4424 18.7481 68.381 18.7415C68.3408 18.7378 68.3015 18.7284 68.2642 18.7135C68.2402 18.7053 68.2192 18.6903 68.2039 18.6705C68.1928 18.6524 68.187 18.6317 68.187 18.6107V14.5423C68.1874 14.5219 68.1932 14.5019 68.2039 14.4842C68.2185 14.4638 68.2397 14.4486 68.2642 14.4412C68.3017 14.427 68.341 14.4176 68.381 14.4132C68.4424 14.4066 68.5042 14.4035 68.566 14.4042C68.63 14.4034 68.6941 14.4065 68.7577 14.4132C68.7973 14.4175 68.8361 14.4269 68.8731 14.4412C68.8968 14.4499 68.9175 14.4648 68.933 14.4842C68.9452 14.5013 68.9517 14.5216 68.9517 14.5423V18.6107ZM69.0404 13.1689C69.0556 13.2961 69.0192 13.4241 68.9388 13.5257C68.8303 13.6007 68.6971 13.6342 68.5647 13.62C68.4342 13.6343 68.3028 13.6013 68.1959 13.5274C68.1169 13.4277 68.0811 13.302 68.096 13.1771C68.0807 13.0501 68.1172 12.9223 68.1977 12.8211C68.3107 12.7588 68.4384 12.7258 68.5684 12.7252C68.6985 12.7246 68.8265 12.7564 68.9401 12.8177C69.0193 12.9175 69.0553 13.0433 69.0404 13.1685V13.1689ZM73.9542 18.6107C73.9544 18.6322 73.9474 18.6532 73.9342 18.6705C73.919 18.6898 73.8986 18.7047 73.8752 18.7135C73.8382 18.7284 73.7992 18.7379 73.7593 18.7415C73.6979 18.7481 73.6361 18.7513 73.5743 18.751C73.5104 18.7514 73.4465 18.7482 73.383 18.7415C73.3434 18.7381 73.3046 18.7287 73.268 18.7135C73.2443 18.7045 73.2234 18.6897 73.2072 18.6705C73.1946 18.653 73.188 18.632 73.1886 18.6107V16.2287C73.1934 16.0408 73.1749 15.8529 73.1336 15.6692C73.1018 15.5387 73.0471 15.4146 72.972 15.302C72.9031 15.2014 72.8074 15.1206 72.6951 15.0683C72.5734 15.0116 72.4396 14.9834 72.3046 14.9861C72.0965 14.9918 71.8958 15.0614 71.7312 15.185C71.5034 15.3509 71.301 15.5473 71.1298 15.7682V18.6089C71.1302 18.6304 71.1234 18.6514 71.1103 18.6688C71.0946 18.688 71.074 18.7029 71.0504 18.7118C71.0137 18.727 70.9748 18.7365 70.935 18.7398C70.8715 18.7471 70.8076 18.7502 70.7437 18.7493C70.6819 18.7495 70.6201 18.7464 70.5587 18.7398C70.5186 18.7361 70.4792 18.7267 70.4419 18.7118C70.4177 18.7037 70.3965 18.6887 70.3811 18.6688C70.3702 18.6506 70.3644 18.63 70.3643 18.6089V14.5423C70.3635 14.5209 70.3682 14.4996 70.378 14.4804C70.3926 14.4618 70.4117 14.4471 70.4335 14.4373C70.4675 14.4223 70.5041 14.4136 70.5414 14.4115C70.6543 14.401 70.768 14.401 70.8809 14.4115C70.9174 14.4129 70.9532 14.4217 70.986 14.4373C71.0068 14.4478 71.025 14.4624 71.0393 14.4804C71.0503 14.4992 71.0556 14.5207 71.0548 14.5423V15.0812C71.2522 14.8543 71.4898 14.6635 71.7565 14.5178C71.9731 14.4035 72.2151 14.3422 72.4617 14.3392C72.7037 14.3325 72.9441 14.3799 73.1642 14.4778C73.3458 14.5627 73.5037 14.6886 73.6249 14.8449C73.7452 15.0067 73.8308 15.1902 73.8765 15.3847C73.9324 15.6288 73.9584 15.8784 73.9542 16.1284V18.6107ZM78.9961 14.7274C79.0014 14.8062 78.9861 14.8849 78.9518 14.9564C78.9408 14.9769 78.9245 14.9942 78.9045 15.0067C78.8845 15.0191 78.8615 15.0263 78.8377 15.0274H78.2417C78.3445 15.1282 78.4219 15.2506 78.468 15.3851C78.5114 15.5179 78.5332 15.6564 78.5328 15.7957C78.5371 16.0087 78.4979 16.2204 78.4174 16.4185C78.3446 16.5936 78.2317 16.7504 78.0872 16.8769C77.9379 17.0048 77.7636 17.1023 77.5747 17.1636C77.3631 17.2325 77.141 17.2664 76.9178 17.2639C76.7542 17.2644 76.5913 17.2422 76.4341 17.198C76.3058 17.1659 76.1852 17.1098 76.0791 17.0327C76.023 17.0867 75.9763 17.1493 75.941 17.2178C75.9048 17.2932 75.8871 17.3757 75.8896 17.4589C75.8898 17.5112 75.9037 17.5626 75.9299 17.6084C75.9561 17.6541 75.9939 17.6927 76.0396 17.7206C76.1585 17.7952 76.2973 17.8345 76.439 17.8338L77.5285 17.8768C77.7207 17.8817 77.9115 17.9096 78.0966 17.9599C78.2585 18.0049 78.4108 18.0778 78.5461 18.1751C78.6708 18.2644 78.7724 18.3805 78.843 18.5142C78.9166 18.6595 78.953 18.8199 78.9491 18.9817C78.9499 19.166 78.9089 19.3482 78.8288 19.5154C78.7441 19.6898 78.6179 19.8422 78.4605 19.96C78.2719 20.1003 78.0569 20.2037 77.8276 20.2643C77.5323 20.3423 77.227 20.3789 76.9209 20.3732C76.632 20.3781 76.3435 20.3502 76.0613 20.2902C75.8561 20.2467 75.6601 20.1696 75.4817 20.062C75.3419 19.9783 75.2282 19.8593 75.1529 19.7177C75.084 19.582 75.0488 19.4325 75.0499 19.2813C75.0512 19.1833 75.0649 19.0859 75.0907 18.9912C75.1153 18.8975 75.1532 18.8077 75.2035 18.7243C75.2573 18.6366 75.3215 18.5553 75.3947 18.482C75.4756 18.3999 75.5625 18.3237 75.6548 18.2538C75.5185 18.1905 75.4027 18.0923 75.3197 17.9698C75.2483 17.858 75.2108 17.729 75.2114 17.5975C75.2079 17.4271 75.2476 17.2584 75.3268 17.1063C75.4023 16.9634 75.4992 16.8322 75.6144 16.7168C75.5172 16.6048 75.4399 16.4778 75.3858 16.3411C75.327 16.1775 75.2989 16.0051 75.3029 15.8319C75.2999 15.6184 75.3411 15.4064 75.424 15.2086C75.4993 15.032 75.613 14.8731 75.7573 14.7429C75.9055 14.6131 76.0795 14.514 76.2686 14.4515C76.4782 14.3821 76.6985 14.3476 76.9201 14.3495C77.0387 14.3488 77.1573 14.3552 77.2751 14.3689C77.3766 14.3943 77.4796 14.4136 77.5835 14.4266H78.843C78.8679 14.4263 78.8922 14.4332 78.913 14.4464C78.9338 14.4595 78.9501 14.4784 78.9597 14.5006C78.99 14.5729 79.0035 14.6508 78.9992 14.7287L78.9961 14.7274ZM77.8028 15.7983C77.8097 15.6806 77.7927 15.5628 77.7525 15.4516C77.7124 15.3403 77.65 15.2379 77.5689 15.1501C77.4805 15.0689 77.3757 15.0062 77.2611 14.9661C77.1466 14.9259 77.0247 14.9091 76.9032 14.9168C76.7706 14.9143 76.639 14.9391 76.5171 14.9896C76.4115 15.0347 76.318 15.1027 76.2437 15.1884C76.1704 15.2745 76.1153 15.3736 76.0813 15.4802C76.0454 15.5917 76.0273 15.7078 76.0276 15.8246C76.0212 15.9397 76.0386 16.0549 76.0788 16.1634C76.1189 16.2719 76.181 16.3715 76.2615 16.4564C76.3488 16.5365 76.452 16.5983 76.5649 16.6381C76.6778 16.678 76.7979 16.6949 76.9178 16.688C77.0525 16.691 77.1864 16.667 77.311 16.6174C77.4165 16.5736 77.5104 16.5072 77.5857 16.4233C77.6598 16.3394 77.7152 16.2417 77.7486 16.1362C77.7844 16.0263 77.8025 15.9118 77.8023 15.7966L77.8028 15.7983ZM78.1867 19.0209C78.1896 18.9408 78.171 18.8614 78.1325 18.7905C78.094 18.7196 78.0371 18.6597 77.9674 18.6167C77.7868 18.5142 77.5806 18.462 77.3714 18.4656L76.2921 18.4299C76.2052 18.4947 76.1243 18.5667 76.0502 18.6451C75.9929 18.7046 75.9421 18.7697 75.8984 18.8392C75.8637 18.896 75.8382 18.9575 75.8225 19.0217C75.8088 19.0825 75.802 19.1446 75.8021 19.2068C75.8013 19.3021 75.8299 19.3955 75.8843 19.475C75.9386 19.5544 76.0162 19.6163 76.107 19.6527C76.3754 19.7657 76.6669 19.8173 76.9591 19.8038C77.1552 19.8082 77.351 19.7863 77.5409 19.7388C77.6768 19.7053 77.8049 19.6468 77.9182 19.5666C78.0074 19.5021 78.0783 19.4167 78.1241 19.3183C78.1661 19.2246 78.1877 19.1235 78.1875 19.0213L78.1867 19.0209Z" fill="#E3004F"/>
</svg>
