<svg width="13" height="9" viewBox="0 0 13 9" fill="none" xmlns="http://www.w3.org/2000/svg">
<path d="M6.00514 8.7408C6.06018 8.82074 6.13383 8.8861 6.21974 8.93125C6.30565 8.97641 6.40125 9 6.4983 9C6.59536 9 6.69096 8.97641 6.77687 8.93125C6.86278 8.8861 6.93643 8.82074 6.99147 8.7408L12.3911 0.941336C12.4536 0.851376 12.4903 0.746008 12.4971 0.63668C12.5039 0.527352 12.4806 0.418245 12.4298 0.321214C12.379 0.224183 12.3025 0.142939 12.2087 0.086309C12.115 0.0296788 12.0075 -0.000171795 11.8979 7.43741e-07H1.09868C0.989389 0.000452158 0.882293 0.0306866 0.788905 0.0874525C0.695517 0.144218 0.61937 0.225368 0.568653 0.322174C0.517936 0.418981 0.494568 0.527781 0.501062 0.636876C0.507556 0.74597 0.543666 0.85123 0.60551 0.941336L6.00514 8.7408Z" fill="black"/>
</svg>
