<svg width="21" height="20" viewBox="0 0 21 20" fill="none" xmlns="http://www.w3.org/2000/svg">
<path d="M10.5039 5.50781C8.01953 5.50781 6.01562 7.51172 6.01562 9.99609C6.01562 12.4805 8.01953 14.4844 10.5039 14.4844C12.9883 14.4844 14.9922 12.4805 14.9922 9.99609C14.9922 7.51172 12.9883 5.50781 10.5039 5.50781ZM10.5039 12.9141C8.89844 12.9141 7.58594 11.6055 7.58594 9.99609C7.58594 8.38672 8.89453 7.07812 10.5039 7.07812C12.1133 7.07812 13.4219 8.38672 13.4219 9.99609C13.4219 11.6055 12.1094 12.9141 10.5039 12.9141ZM16.2227 5.32422C16.2227 5.90625 15.7539 6.37109 15.1758 6.37109C14.5938 6.37109 14.1289 5.90234 14.1289 5.32422C14.1289 4.74609 14.5977 4.27734 15.1758 4.27734C15.7539 4.27734 16.2227 4.74609 16.2227 5.32422ZM19.1953 6.38672C19.1289 4.98438 18.8086 3.74219 17.7812 2.71875C16.7578 1.69531 15.5156 1.375 14.1133 1.30469C12.668 1.22266 8.33594 1.22266 6.89062 1.30469C5.49219 1.37109 4.25 1.69141 3.22266 2.71484C2.19531 3.73828 1.87891 4.98047 1.80859 6.38281C1.72656 7.82812 1.72656 12.1602 1.80859 13.6055C1.875 15.0078 2.19531 16.25 3.22266 17.2734C4.25 18.2969 5.48828 18.6172 6.89062 18.6875C8.33594 18.7695 12.668 18.7695 14.1133 18.6875C15.5156 18.6211 16.7578 18.3008 17.7812 17.2734C18.8047 16.25 19.125 15.0078 19.1953 13.6055C19.2773 12.1602 19.2773 7.83203 19.1953 6.38672Z" fill="#232323"/>
<circle cx="10.5" cy="10" r="3.4" stroke="white" stroke-width="2"/>
</svg>
