<svg width="15" height="14" viewBox="0 0 15 14" fill="none" xmlns="http://www.w3.org/2000/svg">
<path fill-rule="evenodd" clip-rule="evenodd" d="M7.85125 7.97653C7.40525 7.97653 6.96058 7.8292 6.58858 7.53453L3.59858 5.12387C3.38325 4.95053 3.34991 4.6352 3.52258 4.42053C3.69658 4.20653 4.01125 4.17253 4.22591 4.3452L7.21325 6.7532C7.58858 7.05053 8.11725 7.05053 8.49525 6.75053L11.4526 4.34653C11.6672 4.1712 11.9819 4.20453 12.1566 4.4192C12.3306 4.6332 12.2979 4.94787 12.0839 5.12253L9.12125 7.53053C8.74658 7.82787 8.29858 7.97653 7.85125 7.97653Z" fill="#130F26"/>
<mask id="mask0_101_636" style="mask-type:alpha" maskUnits="userSpaceOnUse" x="0" y="0" width="15" height="14">
<path fill-rule="evenodd" clip-rule="evenodd" d="M0.666656 0.333336H14.9999V13.3333H0.666656V0.333336Z" fill="white"/>
</mask>
<g mask="url(#mask0_101_636)">
<path fill-rule="evenodd" clip-rule="evenodd" d="M4.55926 12.3333H11.1059C11.1073 12.332 11.1126 12.3333 11.1166 12.3333C11.8773 12.3333 12.5519 12.0613 13.0693 11.5447C13.6699 10.9467 13.9999 10.0873 13.9999 9.12534V4.54667C13.9999 2.68467 12.7826 1.33334 11.1059 1.33334H4.5606C2.88393 1.33334 1.6666 2.68467 1.6666 4.54667V9.12534C1.6666 10.0873 1.99726 10.9467 2.59726 11.5447C3.1146 12.0613 3.78993 12.3333 4.54993 12.3333H4.55926ZM4.54793 13.3333C3.51926 13.3333 2.6006 12.96 1.89126 12.2533C1.10126 11.4653 0.666595 10.3547 0.666595 9.12534V4.54667C0.666595 2.14467 2.3406 0.333336 4.5606 0.333336H11.1059C13.3259 0.333336 14.9999 2.14467 14.9999 4.54667V9.12534C14.9999 10.3547 14.5653 11.4653 13.7753 12.2533C13.0666 12.9593 12.1473 13.3333 11.1166 13.3333H11.1059H4.5606H4.54793Z" fill="#130F26"/>
</g>
</svg>
