<svg width="20" height="22" viewBox="0 0 20 22" fill="none" xmlns="http://www.w3.org/2000/svg">
<g clip-path="url(#clip0_35_1698)">
<path d="M9.63923 0.956543C8.07389 0.956543 4.20173 1.12203 2.14207 3.1079C0.659119 4.51456 0.0824141 6.66592 2.77441e-05 9.231C-0.164745 13.2855 0.741505 15.8506 2.22446 17.1745C2.554 17.4227 3.37787 18.0847 4.94321 18.5811V20.6497C4.94321 20.6497 4.94321 21.4772 5.43753 21.6427C5.51991 21.6427 5.6023 21.7254 5.68469 21.7254C6.17901 21.7254 6.59094 21.1462 7.16764 20.567C7.66196 19.9878 8.07389 19.5741 8.32105 19.1603H10.1336C11.6989 19.1603 15.5711 18.9949 17.6307 17.009C19.1137 15.5196 19.6904 13.3682 19.6904 10.6377C19.7728 10.2239 19.7728 9.72747 19.7728 9.231C19.6904 6.16945 18.7841 4.10084 17.5483 2.94241C17.054 2.52869 14.912 0.956543 10.2983 0.956543H9.63923ZM9.39207 4.34907C8.98014 4.34907 8.98014 4.92828 9.39207 4.92828C12.4404 4.92828 15.0767 6.9969 15.0767 10.8859C15.0767 11.2996 15.6534 11.2996 15.6534 10.8859C15.6534 6.66592 12.8523 4.26633 9.39207 4.34907Z" fill="#130F26"/>
<path d="M10.3532 5.98543C9.94128 5.90268 9.85889 6.56464 10.2708 6.56464C12.5776 6.73013 13.8958 8.30228 13.8134 10.2881C13.7311 10.7019 14.3901 10.7019 14.3901 10.2881C14.4725 7.9713 12.9896 6.06817 10.3532 5.98543ZM10.6004 7.55758C10.1884 7.47483 10.1884 8.13679 10.6004 8.13679C11.589 8.13679 12.0833 8.716 12.0833 9.70893C12.1657 10.1227 12.7424 10.1227 12.7424 9.70893C12.66 8.38502 11.9186 7.55758 10.6004 7.55758Z" fill="white"/>
<path fill-rule="evenodd" clip-rule="evenodd" d="M8.86688 10.7705C10.7755 12.6869 11.2085 10.4698 12.4238 11.6895C13.5954 12.8659 14.2687 13.1016 12.7843 14.592C12.5984 14.7421 11.4171 16.5476 7.26538 12.379C3.11319 8.20994 4.90987 7.02224 5.05933 6.83555C6.54732 5.34099 6.77794 6.02122 7.94953 7.19758C9.16478 8.41778 6.95823 8.85408 8.86688 10.7705Z" fill="white"/>
</g>
<defs>
<clipPath id="clip0_35_1698">
<rect width="20" height="21" fill="white" transform="translate(0 0.5)"/>
</clipPath>
</defs>
</svg>
