<svg width="14" height="13" viewBox="0 0 14 13" fill="none" xmlns="http://www.w3.org/2000/svg">
<path fill-rule="evenodd" clip-rule="evenodd" d="M10.8459 4.08787H13.6667C13.6667 1.82306 12.3096 0.5 10.0104 0.5H3.98962C1.69037 0.5 0.333328 1.82306 0.333328 4.05898V8.94102C0.333328 11.1769 1.69037 12.5 3.98962 12.5H10.0104C12.3096 12.5 13.6667 11.1769 13.6667 8.94102V8.73303H10.8459C9.5368 8.73303 8.47555 7.69835 8.47555 6.422C8.47555 5.14566 9.5368 4.11098 10.8459 4.11098V4.08787ZM10.8459 5.08161H13.1689C13.4438 5.08161 13.6667 5.29889 13.6667 5.56692V7.25397C13.6635 7.5207 13.4425 7.73617 13.1689 7.73929H10.8993C10.2365 7.74798 9.65699 7.30558 9.50666 6.67622C9.43138 6.28553 9.53706 5.88238 9.79538 5.57481C10.0537 5.26725 10.4382 5.08672 10.8459 5.08161ZM10.9467 6.85532H11.1659C11.4474 6.85532 11.6755 6.63286 11.6755 6.35845C11.6755 6.08404 11.4474 5.86158 11.1659 5.86158H10.9467C10.812 5.86003 10.6824 5.91109 10.5867 6.00336C10.4909 6.09562 10.437 6.22142 10.437 6.35267C10.437 6.62804 10.6642 6.85215 10.9467 6.85532ZM3.49185 4.08787H7.25481C7.53627 4.08787 7.76444 3.86541 7.76444 3.591C7.76444 3.31658 7.53627 3.09413 7.25481 3.09413H3.49185C3.21268 3.09411 2.98546 3.31306 2.98222 3.58522C2.9822 3.86058 3.20943 4.0847 3.49185 4.08787Z" fill="white"/>
</svg>
