<svg width="11" height="13" viewBox="0 0 11 13" fill="none" xmlns="http://www.w3.org/2000/svg">
<path fill-rule="evenodd" clip-rule="evenodd" d="M0.71875 5.55374C0.71875 2.96631 2.88093 0.875 5.49631 0.875C8.11907 0.875 10.2812 2.96631 10.2812 5.55374C10.2812 6.85758 9.80707 8.06804 9.02659 9.09401C8.16558 10.2257 7.10434 11.2118 5.90981 11.9857C5.63641 12.1646 5.38968 12.1781 5.08963 11.9857C3.88829 11.2118 2.82705 10.2257 1.97341 9.09401C1.19237 8.06804 0.71875 6.85758 0.71875 5.55374ZM3.92175 5.69942C3.92175 6.56621 4.62906 7.24794 5.49631 7.24794C6.36414 7.24794 7.07825 6.56621 7.07825 5.69942C7.07825 4.83938 6.36414 4.12447 5.49631 4.12447C4.62906 4.12447 3.92175 4.83938 3.92175 5.69942Z" fill="white"/>
</svg>
