<svg width="20" height="21" viewBox="0 0 20 21" fill="none" xmlns="http://www.w3.org/2000/svg">
<path d="M10.0039 6.00781C7.51953 6.00781 5.51562 8.01172 5.51562 10.4961C5.51562 12.9805 7.51953 14.9844 10.0039 14.9844C12.4883 14.9844 14.4922 12.9805 14.4922 10.4961C14.4922 8.01172 12.4883 6.00781 10.0039 6.00781ZM10.0039 13.4141C8.39844 13.4141 7.08594 12.1055 7.08594 10.4961C7.08594 8.88672 8.39453 7.57812 10.0039 7.57812C11.6133 7.57812 12.9219 8.88672 12.9219 10.4961C12.9219 12.1055 11.6094 13.4141 10.0039 13.4141ZM15.7227 5.82422C15.7227 6.40625 15.2539 6.87109 14.6758 6.87109C14.0938 6.87109 13.6289 6.40234 13.6289 5.82422C13.6289 5.24609 14.0977 4.77734 14.6758 4.77734C15.2539 4.77734 15.7227 5.24609 15.7227 5.82422ZM18.6953 6.88672C18.6289 5.48438 18.3086 4.24219 17.2812 3.21875C16.2578 2.19531 15.0156 1.875 13.6133 1.80469C12.168 1.72266 7.83594 1.72266 6.39062 1.80469C4.99219 1.87109 3.75 2.19141 2.72266 3.21484C1.69531 4.23828 1.37891 5.48047 1.30859 6.88281C1.22656 8.32812 1.22656 12.6602 1.30859 14.1055C1.375 15.5078 1.69531 16.75 2.72266 17.7734C3.75 18.7969 4.98828 19.1172 6.39062 19.1875C7.83594 19.2695 12.168 19.2695 13.6133 19.1875C15.0156 19.1211 16.2578 18.8008 17.2812 17.7734C18.3047 16.75 18.625 15.5078 18.6953 14.1055C18.7773 12.6602 18.7773 8.33203 18.6953 6.88672Z" fill="white"/>
<circle cx="10" cy="10.5" r="3.4" stroke="#373737" stroke-width="2"/>
</svg>
