<svg width="15" height="14" viewBox="0 0 15 14" fill="none" xmlns="http://www.w3.org/2000/svg">
<path fill-rule="evenodd" clip-rule="evenodd" d="M7.85128 7.9765C7.40528 7.9765 6.96061 7.82916 6.58861 7.5345L3.59861 5.12383C3.38328 4.9505 3.34994 4.63516 3.52261 4.4205C3.69661 4.2065 4.01128 4.1725 4.22594 4.34516L7.21328 6.75316C7.58861 7.0505 8.11728 7.0505 8.49528 6.7505L11.4526 4.3465C11.6673 4.17116 11.9819 4.2045 12.1566 4.41916C12.3306 4.63316 12.2979 4.94783 12.0839 5.1225L9.12128 7.5305C8.74661 7.82783 8.29861 7.9765 7.85128 7.9765Z" fill="#F0F3F8"/>
<mask id="mask0_101_1076" style="mask-type:alpha" maskUnits="userSpaceOnUse" x="0" y="0" width="15" height="14">
<path fill-rule="evenodd" clip-rule="evenodd" d="M0.666687 0.333496H15V13.3335H0.666687V0.333496Z" fill="white"/>
</mask>
<g mask="url(#mask0_101_1076)">
<path fill-rule="evenodd" clip-rule="evenodd" d="M4.55929 12.3335H11.106C11.1073 12.3322 11.1126 12.3335 11.1166 12.3335C11.8773 12.3335 12.552 12.0615 13.0693 11.5448C13.67 10.9468 14 10.0875 14 9.1255V4.54683C14 2.68483 12.7826 1.3335 11.106 1.3335H4.56063C2.88396 1.3335 1.66663 2.68483 1.66663 4.54683V9.1255C1.66663 10.0875 1.99729 10.9468 2.59729 11.5448C3.11463 12.0615 3.78996 12.3335 4.54996 12.3335H4.55929ZM4.54796 13.3335C3.51929 13.3335 2.60063 12.9602 1.89129 12.2535C1.10129 11.4655 0.666626 10.3548 0.666626 9.1255V4.54683C0.666626 2.14483 2.34063 0.333496 4.56063 0.333496H11.106C13.326 0.333496 15 2.14483 15 4.54683V9.1255C15 10.3548 14.5653 11.4655 13.7753 12.2535C13.0666 12.9595 12.1473 13.3335 11.1166 13.3335H11.106H4.56063H4.54796Z" fill="#F0F3F8"/>
</g>
</svg>
